IGES file generated from Kompas 1.3 for Windows drawing by the IGES     S      1
translator from Ascon Ltd., translator version IGESOUT-5.1.             S      2
1H,,1H;,31HÿÔËÎ¸Í‡ Ã24-6gx48 √Œ—“ 22038-76,84HC:\Users\“ËÏÓı‡\Desktop\ –G      1
  ÓÏÔÂÒÒÓ\ÃŒ≈\ Î‡Ô‡Ì\ÿÔËÎ¸Í‡ Ã24-6gx48 √Œ—“ 22038-76.igs,28HKompas( 32G      2
 bit ) for Windows,3H1.0,32,38,6,308,15,7Hunknown,1,2,2HMM,1000,1,16H-17G      3
801007:085623,1e-06,50000,7Hunknown,7Hunknown,0,0,13H201107:085623;     G      4
     502       1       0       0       0       0       0       000010000D      1
     502       0       0       8       1                               0D      2
     124       9       0       0       0       0       0       001020201D      3
     124       0       0       2       0                               0D      4
     100      11       0       0       0       0       3       000010000D      5
     100       1       0       1       0                               0D      6
     110      12       0       0       0       0       0       000010000D      7
     110       1       0       1       0                               0D      8
     124      13       0       0       0       0       0       001020201D      9
     124       1       0       2       0                               0D     10
     100      15       0       0       0       0       9       000010000D     11
     100       1       0       1       0                               0D     12
     110      16       0       0       0       0       0       000010000D     13
     110       1       0       1       0                               0D     14
     124      17       0       0       0       0       0       001020201D     15
     124       1       0       1       0                               0D     16
     100      18       0       0       0       0      15       000010000D     17
     100       1       0       1       0                               0D     18
     124      19       0       0       0       0       0       001020201D     19
     124       1       0       2       0                               0D     20
     100      21       0       0       0       0      19       000010000D     21
     100       1       0       1       0                               0D     22
     124      22       0       0       0       0       0       001020201D     23
     124       1       0       2       0                               0D     24
     100      24       0       0       0       0      23       000010000D     25
     100       1       0       1       0                               0D     26
     124      25       0       0       0       0       0       001020201D     27
     124       1       0       1       0                               0D     28
     100      26       0       0       0       0      27       000010000D     29
     100       1       0       1       0                               0D     30
     110      27       0       0       0       0       0       000010000D     31
     110       1       0       2       0                               0D     32
     110      29       0       0       0       0       0       000010000D     33
     110       1       0       1       0                               0D     34
     110      30       0       0       0       0       0       000010000D     35
     110       1       0       2       0                               0D     36
     110      32       0       0       0       0       0       000010000D     37
     110       1       0       2       0                               0D     38
     124      34       0       0       0       0       0       001020201D     39
     124       1       0       1       0                               0D     40
     100      35       0       0       0       0      39       000010000D     41
     100       1       0       1       0                               0D     42
     124      36       0       0       0       0       0       001020201D     43
     124       1       0       2       0                               0D     44
     100      38       0       0       0       0      43       000010000D     45
     100       1       0       1       0                               0D     46
     504      39       0       0       0       0       0       000010000D     47
     504       1       0       3       1                               0D     48
     110      42       0       0       0       0       0       001010000D     49
     110       1       0       1       0                               0D     50
     110      43       0       0       0       0       0       001010001D     51
     110       1       0       1       0                               0D     52
     120      44       0       0       0       0       0       000010000D     53
     120       1       0       1       0                               0D     54
     126      45       0       0       0       0       0       001010500D     55
     126       1       0       2       0                               0D     56
     126      47       0       0       0       0       0       001010500D     57
     126       1       0       1       0                               0D     58
     126      48       0       0       0       0       0       001010500D     59
     126       1       0       2       0                               0D     60
     126      50       0       0       0       0       0       001010500D     61
     126       1       0       2       0                               0D     62
     508      52       0       0       0       0       0       000010000D     63
     508       1       0       2       1                               0D     64
     314      54       0       0       0       0       0       001000200D     65
     314       1       0       1       0                               0D     66
     510      55       0       0       0       0       0       000010000D     67
     510       1     -65       1       1                               0D     68
     128      56       0       0       0       0       0       000010000D     69
     128       1       0       2       0                               0D     70
     126      58       0       0       0       0       0       001010500D     71
     126       1       0      27       0                               0D     72
     126      85       0       0       0       0       0       001010500D     73
     126       1       0      27       0                               0D     74
     508     112       0       0       0       0       0       000010000D     75
     508       1       0       1       1                               0D     76
     510     113       0       0       0       0       0       000010000D     77
     510       1     -65       1       1                               0D     78
     128     114       0       0       0       0       0       000010000D     79
     128       1       0       2       0                               0D     80
     126     116       0       0       0       0       0       001010500D     81
     126       1       0      27       0                               0D     82
     126     143       0       0       0       0       0       001010500D     83
     126       1       0      27       0                               0D     84
     508     170       0       0       0       0       0       000010000D     85
     508       1       0       1       1                               0D     86
     510     171       0       0       0       0       0       000010000D     87
     510       1     -65       1       1                               0D     88
     110     172       0       0       0       0       0       001010000D     89
     110       1       0       1       0                               0D     90
     110     173       0       0       0       0       0       001010001D     91
     110       1       0       2       0                               0D     92
     120     175       0       0       0       0       0       000010000D     93
     120       1       0       1       0                               0D     94
     126     176       0       0       0       0       0       001010500D     95
     126       1       0       2       0                               0D     96
     126     178       0       0       0       0       0       001010500D     97
     126       1       0       1       0                               0D     98
     126     179       0       0       0       0       0       001010500D     99
     126       1       0       2       0                               0D    100
     126     181       0       0       0       0       0       001010500D    101
     126       1       0       2       0                               0D    102
     508     183       0       0       0       0       0       000010000D    103
     508       1       0       2       1                               0D    104
     510     185       0       0       0       0       0       000010000D    105
     510       1     -65       1       1                               0D    106
     110     186       0       0       0       0       0       001010000D    107
     110       1       0       1       0                               0D    108
     110     187       0       0       0       0       0       001010001D    109
     110       1       0       1       0                               0D    110
     120     188       0       0       0       0       0       000010000D    111
     120       1       0       1       0                               0D    112
     126     189       0       0       0       0       0       001010500D    113
     126       1       0       2       0                               0D    114
     126     191       0       0       0       0       0       001010500D    115
     126       1       0       2       0                               0D    116
     126     193       0       0       0       0       0       001010500D    117
     126       1       0       2       0                               0D    118
     126     195       0       0       0       0       0       001010500D    119
     126       1       0       1       0                               0D    120
     508     196       0       0       0       0       0       000010000D    121
     508       1       0       2       1                               0D    122
     510     198       0       0       0       0       0       000010000D    123
     510       1     -65       1       1                               0D    124
     110     199       0       0       0       0       0       001010000D    125
     110       1       0       1       0                               0D    126
     110     200       0       0       0       0       0       001010001D    127
     110       1       0       1       0                               0D    128
     120     201       0       0       0       0       0       000010000D    129
     120       1       0       1       0                               0D    130
     126     202       0       0       0       0       0       001010500D    131
     126       1       0       1       0                               0D    132
     126     203       0       0       0       0       0       001010500D    133
     126       1       0       2       0                               0D    134
     126     205       0       0       0       0       0       001010500D    135
     126       1       0       2       0                               0D    136
     126     207       0       0       0       0       0       001010500D    137
     126       1       0       2       0                               0D    138
     508     209       0       0       0       0       0       000010000D    139
     508       1       0       2       1                               0D    140
     510     211       0       0       0       0       0       000010000D    141
     510       1     -65       1       1                               0D    142
     110     212       0       0       0       0       0       001010000D    143
     110       1       0       1       0                               0D    144
     110     213       0       0       0       0       0       001010001D    145
     110       1       0       1       0                               0D    146
     120     214       0       0       0       0       0       000010000D    147
     120       1       0       1       0                               0D    148
     126     215       0       0       0       0       0       001010500D    149
     126       1       0       1       0                               0D    150
     126     216       0       0       0       0       0       001010500D    151
     126       1       0       2       0                               0D    152
     126     218       0       0       0       0       0       001010500D    153
     126       1       0       2       0                               0D    154
     126     220       0       0       0       0       0       001010500D    155
     126       1       0       2       0                               0D    156
     508     222       0       0       0       0       0       000010000D    157
     508       1       0       2       1                               0D    158
     510     224       0       0       0       0       0       000010000D    159
     510       1     -65       1       1                               0D    160
     110     225       0       0       0       0       0       001010000D    161
     110       1       0       1       0                               0D    162
     110     226       0       0       0       0       0       001010001D    163
     110       1       0       2       0                               0D    164
     120     228       0       0       0       0       0       000010000D    165
     120       1       0       1       0                               0D    166
     126     229       0       0       0       0       0       001010500D    167
     126       1       0       2       0                               0D    168
     126     231       0       0       0       0       0       001010500D    169
     126       1       0       2       0                               0D    170
     126     233       0       0       0       0       0       001010500D    171
     126       1       0       1       0                               0D    172
     126     234       0       0       0       0       0       001010500D    173
     126       1       0       2       0                               0D    174
     508     236       0       0       0       0       0       000010000D    175
     508       1       0       2       1                               0D    176
     510     238       0       0       0       0       0       000010000D    177
     510       1     -65       1       1                               0D    178
     514     239       0       0       0       0       0       000010000D    179
     514       1       0       1       1                               0D    180
     186     240       0       0       0       0       0       000000000D    181
     186       1       0       1       0                               0D    182
502,14,45,0,-12,45,1.46957615897682e-15,12,-45,                        1P      1
-1.46957615897682e-15,-12,-45,1.46957615897682e-15,12,45,              1P      2
1.46957615897682e-15,12,-45,1.46957615897682e-15,12,48,                1P      3
1.10218211923262e-15,9,48,1.97215226305253e-31,                        1P      4
-9.00000000000001,-48,-1.10218211923262e-15,-9.00000000000001,         1P      5
-48,1.10218211923262e-15,9,-45,1.46957615897682e-15,12,-48,            1P      6
1.10218211923262e-15,9.00000000000001,48,-1.10218211923262e-15,        1P      7
9.00000000000001,45,-1.46957615897682e-15,12;                          1P      8
124,0,0,1,45,1.22464679914735e-16,1,-0,0,-1,                           3P      9
1.22464679914735e-16,-0,0;                                             3P     10
100,0,0,0,12,0,-12,1.46957615897682e-15;                               5P     11
110,-45,-1.46957615897682e-15,-12,45,-1.46957615897682e-15,-12;        7P     12
124,0,-0,1,-45,-1.22464679914735e-16,1,0,0,-1,                         9P     13
-1.22464679914735e-16,-0,0;                                            9P     14
100,0,0,0,12,0,-12,1.46957615897682e-15;                              11P     15
110,45,0,12,-45,0,12;                                                 13P     16
124,0,0,1,48,0,-1,0,0,1,0,-0,0;                                       15P     17
100,0,0,0,9,0,-9,1.10218211923262e-15;                                17P     18
124,0,-0,1,48,-1.22464679914735e-16,1,0,0,-1,                         19P     19
-1.22464679914735e-16,-0,0;                                           19P     20
100,0,0,0,9,0,-9,1.10218211923262e-15;                                21P     21
124,0,-0,1,-48,-1.22464679914735e-16,1,0,0,-1,                        23P     22
-1.22464679914735e-16,-0,0;                                           23P     23
100,0,0,0,9,0,-9,1.10218211923262e-15;                                25P     24
124,0,0,1,-48,0,-1,0,0,1,0,-0,0;                                      27P     25
100,0,0,0,9,0,-9,1.10218211923262e-15;                                29P     26
110,-48,-1.10218211923262e-15,-9.00000000000001,-45,                  31P     27
-1.46957615897682e-15,-12;                                            31P     28
110,-45,0,12,-48,0,9.00000000000001;                                  33P     29
110,48,1.10218211923262e-15,-9.00000000000001,45,                     35P     30
1.46957615897682e-15,-12;                                             35P     31
110,48,-2.20436423846524e-15,9.00000000000001,45,                     37P     32
-2.93915231795365e-15,12;                                             37P     33
124,0,0,1,-45,0,-1,0,0,1,0,-0,0;                                      39P     34
100,0,0,0,12,0,-12,1.46957615897682e-15;                              41P     35
124,-0,0,1,45,-2.44929359829471e-16,-1,-0,0,1,                        43P     36
-2.44929359829471e-16,-0,0;                                           43P     37
100,0,0,0,12,0,-12,1.46957615897682e-15;                              45P     38
504,14,5,1,1,1,2,7,1,3,1,1,11,1,3,1,4,13,1,5,1,6,17,1,7,1,8,21,       47P     39
1,8,1,7,25,1,9,1,10,29,1,10,1,9,31,1,9,1,3,33,1,11,1,12,35,1,8,       47P     40
1,1,37,1,13,1,14,41,1,4,1,3,45,1,2,1,1;                               47P     41
110,-48,0,0,-47,0,0;                                                  49P     42
110,-45,-1.46957615897682e-15,-12,45,-1.46957615897682e-15,-12;       51P     43
120,49,51,0,6.28318530717959;                                         53P     44
126,1,1,1,0,1,0,0,0,1,1,1,1,1,0,0,1,3.14159265358979,0,0,1,0,0,       55P     45
1;                                                                    55P     46
126,1,1,1,0,1,0,0,0,1,1,1,1,0,0,0,1,0,0,0,1,0,0,1;                    57P     47
126,1,1,1,0,1,0,0,0,1,1,1,1,0,0,0,0,3.14159265358979,0,0,1,0,0,       59P     48
1;                                                                    59P     49
126,1,1,1,0,1,0,0,0,1,1,1,1,1,3.14159265358979,0,0,                   61P     50
3.14159265358979,0,0,1,0,0,1;                                         61P     51
508,4,0,47,1,0,1,0,55,0,47,2,0,1,0,57,0,47,3,1,1,0,59,0,47,4,0,       63P     52
1,0,61;                                                               63P     53
314,50.1960784313725,50.1960784313725,50.1960784313725,1H ;           65P     54
510,53,1,1,63;                                                        67P     55
128,1,1,1,1,0,0,1,0,0,0,0,1,1,0,0,1,1,1,1,1,1,48,9,-9,48,9,9,48,      69P     56
-9,-9,48,-9,9,0,1,0,1;                                                69P     57
126,28,3,1,0,1,0,0,0,0,0,0.0384615384615385,0.0769230769230769,       71P     58
0.115384615384615,0.153846153846154,0.192307692307692,                71P     59
0.230769230769231,0.269230769230769,0.307692307692308,                71P     60
0.346153846153846,0.384615384615385,0.423076923076923,                71P     61
0.461538461538461,0.5,0.538461538461538,0.576923076923077,            71P     62
0.615384615384615,0.653846153846154,0.692307692307692,                71P     63
0.73076923076923,0.769230769230769,0.807692307692307,                 71P     64
0.846153846153846,0.884615384615384,0.923076923076923,                71P     65
0.961538461538461,1,1,1,1,1,1,1,1,1,1,1,1,1,1,1,1,1,1,1,1,1,1,1,      71P     66
1,1,1,1,1,1,1,1,1,1,1,0.5,0,1,0.520138414446088,0,                    71P     67
0.997563703584718,0.560415160581344,0,0.986653659747647,              71P     68
0.619949357062131,0,0.96864710970285,0.677734404032805,0,             71P     69
0.943806629497199,0.732927687934255,0,0.912494449267984,              71P     70
0.78472436036148,0,0.875167171111835,0.832369110813293,0,             71P     71
0.832369110797979,0.875167171107732,0,0.784724360418632,              71P     72
0.912494449269083,0,0.732927687720959,0.943806629496905,0,            71P     73
0.677734404828839,0.968647109702928,0,0.619949354091291,              71P     74
0.986653659747626,0,0.56041517166867,0.997563703584725,0,0.5,         71P     75
1.00121814820764,0,0.439584828331331,0.997563703584725,0,             71P     76
0.380050645908709,0.986653659747626,0,0.322265595171161,              71P     77
0.968647109702929,0,0.267072312279042,0.943806629496905,0,            71P     78
0.215275639581368,0.912494449269084,0,0.167630889202021,              71P     79
0.875167171107732,0,0.124832828888165,0.832369110813294,0,            71P     80
0.0875055507320166,0.78472436036148,0,0.0561933705028012,             71P     81
0.732927687934256,0,0.0313528902971507,0.677734404032806,0,           71P     82
0.0133463402523532,0.619949357062132,0,0.00243629641528148,           71P     83
0.560415160581345,0,0,0.520138414446089,0,0,0.5,0,0,1,0,0,1;          71P     84
126,28,3,1,0,1,0,0,0,0,0,0.0384615384615385,0.0769230769230769,       73P     85
0.115384615384615,0.153846153846154,0.192307692307692,                73P     86
0.230769230769231,0.269230769230769,0.307692307692308,                73P     87
0.346153846153846,0.384615384615385,0.423076923076923,                73P     88
0.461538461538461,0.5,0.538461538461538,0.576923076923077,            73P     89
0.615384615384615,0.653846153846154,0.692307692307692,                73P     90
0.73076923076923,0.769230769230769,0.807692307692307,                 73P     91
0.846153846153846,0.884615384615384,0.923076923076923,                73P     92
0.961538461538461,1,1,1,1,1,1,1,1,1,1,1,1,1,1,1,1,1,1,1,1,1,1,1,      73P     93
1,1,1,1,1,1,1,1,1,1,0,0.5,0,0,0.479861585553912,0,                    73P     94
0.00243629641528148,0.439584839418656,0,0.0133463402523528,           73P     95
0.380050642937869,0,0.0313528902971505,0.322265595967195,0,           73P     96
0.0561933705028009,0.267072312065745,0,0.0875055507320162,            73P     97
0.21527563963852,0,0.124832828888165,0.167630889186707,0,             73P     98
0.16763088920202,0.124832828892269,0,0.215275639581368,               73P     99
0.0875055507309168,0,0.267072312279042,0.0561933705030955,0,          73P    100
0.32226559517116,0.0313528902970715,0,0.380050645908708,              73P    101
0.0133463402523745,0,0.43958482833133,0.00243629641527521,0,0.5,      73P    102
-0.00121814820763755,0,0.560415171668669,0.00243629641527526,0,       73P    103
0.61994935409129,0.013346340252374,0,0.677734404828839,               73P    104
0.0313528902970713,0,0.732927687720958,0.0561933705030954,0,          73P    105
0.784724360418632,0.0875055507309165,0,0.832369110797979,             73P    106
0.124832828892268,0,0.875167171111835,0.167630889186706,0,            73P    107
0.912494449267984,0.21527563963852,0,0.943806629497199,               73P    108
0.267072312065744,0,0.968647109702849,0.322265595967194,0,            73P    109
0.986653659747647,0.380050642937868,0,0.997563703584718,              73P    110
0.439584839418655,0,1,0.479861585553911,0,1,0.5,0,0,1,0,0,1;          73P    111
508,2,0,47,5,1,1,0,71,0,47,6,1,1,0,73;                                75P    112
510,69,1,1,75;                                                        77P    113
128,1,1,1,1,0,0,1,0,0,0,0,1,1,0,0,1,1,1,1,1,1,-48,9,-9,-48,9,9,       79P    114
-48,-9,-9,-48,-9,9,0,1,0,1;                                           79P    115
126,28,3,1,0,1,0,0,0,0,0,0.0384615384615385,0.0769230769230769,       81P    116
0.115384615384615,0.153846153846154,0.192307692307692,                81P    117
0.230769230769231,0.269230769230769,0.307692307692308,                81P    118
0.346153846153846,0.384615384615385,0.423076923076923,                81P    119
0.461538461538461,0.5,0.538461538461538,0.576923076923077,            81P    120
0.615384615384615,0.653846153846154,0.692307692307692,                81P    121
0.73076923076923,0.769230769230769,0.807692307692307,                 81P    122
0.846153846153846,0.884615384615384,0.923076923076923,                81P    123
0.961538461538461,1,1,1,1,1,1,1,1,1,1,1,1,1,1,1,1,1,1,1,1,1,1,1,      81P    124
1,1,1,1,1,1,1,1,1,1,0,0.5,0,0,0.479861585553912,0,                    81P    125
0.00243629641528148,0.439584839418656,0,0.0133463402523528,           81P    126
0.380050642937869,0,0.0313528902971505,0.322265595967195,0,           81P    127
0.0561933705028009,0.267072312065745,0,0.0875055507320162,            81P    128
0.21527563963852,0,0.124832828888165,0.167630889186707,0,             81P    129
0.16763088920202,0.124832828892269,0,0.215275639581368,               81P    130
0.0875055507309168,0,0.267072312279042,0.0561933705030955,0,          81P    131
0.32226559517116,0.0313528902970715,0,0.380050645908708,              81P    132
0.0133463402523745,0,0.43958482833133,0.00243629641527521,0,0.5,      81P    133
-0.00121814820763755,0,0.560415171668669,0.00243629641527526,0,       81P    134
0.61994935409129,0.013346340252374,0,0.677734404828839,               81P    135
0.0313528902970713,0,0.732927687720958,0.0561933705030954,0,          81P    136
0.784724360418632,0.0875055507309165,0,0.832369110797979,             81P    137
0.124832828892268,0,0.875167171111835,0.167630889186706,0,            81P    138
0.912494449267984,0.21527563963852,0,0.943806629497199,               81P    139
0.267072312065744,0,0.968647109702849,0.322265595967194,0,            81P    140
0.986653659747647,0.380050642937868,0,0.997563703584718,              81P    141
0.439584839418655,0,1,0.479861585553911,0,1,0.5,0,0,1,0,0,1;          81P    142
126,28,3,1,0,1,0,0,0,0,0,0.0384615384615385,0.0769230769230769,       83P    143
0.115384615384615,0.153846153846154,0.192307692307692,                83P    144
0.230769230769231,0.269230769230769,0.307692307692308,                83P    145
0.346153846153846,0.384615384615385,0.423076923076923,                83P    146
0.461538461538461,0.5,0.538461538461538,0.576923076923077,            83P    147
0.615384615384615,0.653846153846154,0.692307692307692,                83P    148
0.73076923076923,0.769230769230769,0.807692307692307,                 83P    149
0.846153846153846,0.884615384615384,0.923076923076923,                83P    150
0.961538461538461,1,1,1,1,1,1,1,1,1,1,1,1,1,1,1,1,1,1,1,1,1,1,1,      83P    151
1,1,1,1,1,1,1,1,1,1,1,0.5,0,1,0.520138414446088,0,                    83P    152
0.997563703584718,0.560415160581344,0,0.986653659747647,              83P    153
0.619949357062131,0,0.96864710970285,0.677734404032805,0,             83P    154
0.943806629497199,0.732927687934255,0,0.912494449267984,              83P    155
0.78472436036148,0,0.875167171111835,0.832369110813293,0,             83P    156
0.832369110797979,0.875167171107732,0,0.784724360418632,              83P    157
0.912494449269083,0,0.732927687720959,0.943806629496905,0,            83P    158
0.677734404828839,0.968647109702928,0,0.619949354091291,              83P    159
0.986653659747626,0,0.56041517166867,0.997563703584725,0,0.5,         83P    160
1.00121814820764,0,0.439584828331331,0.997563703584725,0,             83P    161
0.380050645908709,0.986653659747626,0,0.322265595171161,              83P    162
0.968647109702929,0,0.267072312279042,0.943806629496905,0,            83P    163
0.215275639581368,0.912494449269084,0,0.167630889202021,              83P    164
0.875167171107732,0,0.124832828888165,0.832369110813294,0,            83P    165
0.0875055507320166,0.78472436036148,0,0.0561933705028012,             83P    166
0.732927687934256,0,0.0313528902971507,0.677734404032806,0,           83P    167
0.0133463402523532,0.619949357062132,0,0.00243629641528148,           83P    168
0.560415160581345,0,0,0.520138414446089,0,0,0.5,0,0,1,0,0,1;          83P    169
508,2,0,47,7,0,1,0,81,0,47,8,0,1,0,83;                                85P    170
510,79,1,1,85;                                                        87P    171
110,-45,0,0,-44,0,0;                                                  89P    172
110,-48,-1.10218211923262e-15,-9.00000000000001,-45,                  91P    173
-1.46957615897682e-15,-12;                                            91P    174
120,89,91,0,6.28318530717959;                                         93P    175
126,1,1,1,0,1,0,0,0,1,1,1,1,1,0,0,1,3.14159265358979,0,0,1,0,0,       95P    176
1;                                                                    95P    177
126,1,1,1,0,1,0,0,0,1,1,1,1,0,0,0,1,0,0,0,1,0,0,1;                    97P    178
126,1,1,1,0,1,0,0,0,1,1,1,1,0,0,0,0,3.14159265358979,0,0,1,0,0,       99P    179
1;                                                                    99P    180
126,1,1,1,0,1,0,0,0,1,1,1,1,1,3.14159265358979,0,0,                  101P    181
3.14159265358979,0,0,1,0,0,1;                                        101P    182
508,4,0,47,3,0,1,0,95,0,47,9,0,1,0,97,0,47,7,1,1,0,99,0,47,10,0,     103P    183
1,0,101;                                                             103P    184
510,93,1,1,103;                                                      105P    185
110,45,0,0,44,0,0;                                                   107P    186
110,48,0,9.00000000000001,45,0,12;                                   109P    187
120,107,109,0,6.28318530717959;                                      111P    188
126,1,1,1,0,1,0,0,0,1,1,1,1,0,3.14159265358979,0,0,0,0,0,1,0,0,      113P    189
1;                                                                   113P    190
126,1,1,1,0,1,0,0,0,1,1,1,1,0,3.14159265358979,0,1,                  115P    191
3.14159265358979,0,0,1,0,0,1;                                        115P    192
126,1,1,1,0,1,0,0,0,1,1,1,1,1,3.14159265358979,0,1,0,0,0,1,0,0,      117P    193
1;                                                                   117P    194
126,1,1,1,0,1,0,0,0,1,1,1,1,0,0,0,1,0,0,0,1,0,0,1;                   119P    195
508,4,0,47,6,0,1,0,113,0,47,11,1,1,0,115,0,47,1,1,1,0,117,0,47,      121P    196
12,0,1,0,119;                                                        121P    197
510,111,1,1,121;                                                     123P    198
110,-48,0,0,-47,0,0;                                                 125P    199
110,-45,0,12,45,0,12;                                                127P    200
120,125,127,0,6.28318530717959;                                      129P    201
126,1,1,1,0,1,0,0,0,1,1,1,1,1,0,0,0,0,0,0,1,0,0,1;                   131P    202
126,1,1,1,0,1,0,0,0,1,1,1,1,0,0,0,0,3.14159265358979,0,0,1,0,0,      133P    203
1;                                                                   133P    204
126,1,1,1,0,1,0,0,0,1,1,1,1,0,3.14159265358979,0,1,                  135P    205
3.14159265358979,0,0,1,0,0,1;                                        135P    206
126,1,1,1,0,1,0,0,0,1,1,1,1,1,0,0,1,3.14159265358979,0,0,1,0,0,      137P    207
1;                                                                   137P    208
508,4,0,47,4,1,1,0,131,0,47,13,1,1,0,133,0,47,2,1,1,0,135,0,47,      139P    209
14,0,1,0,137;                                                        139P    210
510,129,1,1,139;                                                     141P    211
110,-45,0,0,-44,0,0;                                                 143P    212
110,-48,0,9.00000000000001,-45,0,12;                                 145P    213
120,143,145,0,6.28318530717959;                                      147P    214
126,1,1,1,0,1,0,0,0,1,1,1,1,1,0,0,0,0,0,0,1,0,0,1;                   149P    215
126,1,1,1,0,1,0,0,0,1,1,1,1,0,0,0,0,3.14159265358979,0,0,1,0,0,      151P    216
1;                                                                   151P    217
126,1,1,1,0,1,0,0,0,1,1,1,1,0,3.14159265358979,0,1,                  153P    218
3.14159265358979,0,0,1,0,0,1;                                        153P    219
126,1,1,1,0,1,0,0,0,1,1,1,1,1,0,0,1,3.14159265358979,0,0,1,0,0,      155P    220
1;                                                                   155P    221
508,4,0,47,10,1,1,0,149,0,47,8,1,1,0,151,0,47,9,1,1,0,153,0,47,      157P    222
13,0,1,0,155;                                                        157P    223
510,147,1,1,157;                                                     159P    224
110,45,0,0,44,0,0;                                                   161P    225
110,48,1.10218211923262e-15,-9.00000000000001,45,                    163P    226
1.46957615897682e-15,-12;                                            163P    227
120,161,163,0,6.28318530717959;                                      165P    228
126,1,1,1,0,1,0,0,0,1,1,1,1,0,3.14159265358979,0,1,                  167P    229
3.14159265358979,0,0,1,0,0,1;                                        167P    230
126,1,1,1,0,1,0,0,0,1,1,1,1,1,3.14159265358979,0,1,0,0,0,1,0,0,      169P    231
1;                                                                   169P    232
126,1,1,1,0,1,0,0,0,1,1,1,1,0,0,0,1,0,0,0,1,0,0,1;                   171P    233
126,1,1,1,0,1,0,0,0,1,1,1,1,0,3.14159265358979,0,0,0,0,0,1,0,0,      173P    234
1;                                                                   173P    235
508,4,0,47,12,1,1,0,167,0,47,14,1,1,0,169,0,47,11,0,1,0,171,0,       175P    236
47,5,0,1,0,173;                                                      175P    237
510,165,1,1,175;                                                     177P    238
514,8,67,0,77,1,87,0,105,0,123,0,141,0,159,0,177,0;                  179P    239
186,179,1,0;                                                         181P    240
S      2G      4D    182P    240                                        T      1
